<svg xmlns="http://www.w3.org/2000/svg" viewBox="0 0 1360 1690" font-family="Helvetica Neue, Helvetica, Arial, sans-serif">
  <defs>
    <marker id="a" markerWidth="9" markerHeight="8" refX="8" refY="4" orient="auto"><path d="M0,0 L9,4 L0,8 z" fill="#1a1a1a"/></marker>
    <marker id="ao" markerWidth="9" markerHeight="8" refX="8" refY="4" orient="auto"><path d="M0,0 L9,4 L0,8 z" fill="#e2694e"/></marker>
    <marker id="ag" markerWidth="9" markerHeight="8" refX="8" refY="4" orient="auto"><path d="M0,0 L9,4 L0,8 z" fill="#b3b3b3"/></marker>
  </defs>
  <rect width="1360" height="1690" fill="#faf7f0"/>
  <text x="60" y="82" font-size="44" font-weight="700" fill="#1a1a1a">Fable as conductor</text>
  <text x="60" y="116" font-size="21" fill="#8a8a8a">one session orchestrates the fleet: Codex implements, Opus designs and leads, worktrees keep writers parallel</text>

  <!-- HERO: all at once -->
  <g transform="translate(60,150)">
    <rect width="1240" height="440" fill="#ffffff" stroke="#ddd8d0"/>
    <text x="30" y="52" font-size="26" font-weight="700" fill="#1a1a1a">The whole fleet, at once</text>
    <line x1="30" y1="80" x2="1210" y2="80" stroke="#ddd8d0"/>
    <circle cx="150" cy="250" r="30" fill="#e2694e"/>
    <text x="150" y="306" font-size="18" fill="#8a8a8a" text-anchor="middle">Fable</text>
    <!-- codex fleet column -->
    <circle cx="400" cy="130" r="16" fill="#1e2a4a"/>
    <circle cx="400" cy="200" r="16" fill="#1e2a4a"/>
    <circle cx="400" cy="270" r="16" fill="#1e2a4a"/>
    <circle cx="400" cy="340" r="16" fill="#1e2a4a"/>
    <text x="400" y="386" font-size="16" fill="#8a8a8a" text-anchor="middle">codex fleet</text>
    <line x1="177" y1="238" x2="380" y2="138" stroke="#1a1a1a" stroke-width="2" marker-end="url(#a)"/>
    <line x1="179" y1="244" x2="380" y2="203" stroke="#1a1a1a" stroke-width="2" marker-end="url(#a)"/>
    <line x1="179" y1="256" x2="380" y2="267" stroke="#1a1a1a" stroke-width="2" marker-end="url(#a)"/>
    <line x1="177" y1="262" x2="380" y2="332" stroke="#1a1a1a" stroke-width="2" marker-end="url(#a)"/>
    <!-- opus design pair -->
    <circle cx="620" cy="150" r="18" fill="none" stroke="#e2694e" stroke-width="3"/>
    <circle cx="620" cy="250" r="18" fill="none" stroke="#e2694e" stroke-width="3"/>
    <text x="620" y="300" font-size="16" fill="#8a8a8a" text-anchor="middle">opus design</text>
    <path d="M178,236 C 320,150 480,140 596,148" fill="none" stroke="#1a1a1a" stroke-width="2" marker-end="url(#a)"/>
    <path d="M180,254 C 330,270 470,258 596,251" fill="none" stroke="#1a1a1a" stroke-width="2" marker-end="url(#a)"/>
    <!-- squad cluster -->
    <circle cx="830" cy="150" r="18" fill="none" stroke="#e2694e" stroke-width="3"/>
    <circle cx="940" cy="110" r="12" fill="#1e2a4a"/>
    <circle cx="940" cy="150" r="12" fill="#1e2a4a"/>
    <circle cx="940" cy="190" r="12" fill="#1e2a4a"/>
    <circle cx="830" cy="310" r="18" fill="none" stroke="#e2694e" stroke-width="3"/>
    <circle cx="940" cy="270" r="12" fill="#1e2a4a"/>
    <circle cx="940" cy="310" r="12" fill="#1e2a4a"/>
    <circle cx="940" cy="350" r="12" fill="#1e2a4a"/>
    <text x="885" y="392" font-size="16" fill="#8a8a8a" text-anchor="middle">squads</text>
    <path d="M178,240 C 400,90 640,90 806,140" fill="none" stroke="#1a1a1a" stroke-width="2" marker-end="url(#a)"/>
    <path d="M180,260 C 400,380 640,370 806,318" fill="none" stroke="#1a1a1a" stroke-width="2" marker-end="url(#a)"/>
    <line x1="847" y1="143" x2="925" y2="115" stroke="#1a1a1a" stroke-width="1.5" marker-end="url(#a)"/>
    <line x1="849" y1="150" x2="925" y2="150" stroke="#1a1a1a" stroke-width="1.5" marker-end="url(#a)"/>
    <line x1="847" y1="157" x2="925" y2="185" stroke="#1a1a1a" stroke-width="1.5" marker-end="url(#a)"/>
    <line x1="847" y1="303" x2="925" y2="275" stroke="#1a1a1a" stroke-width="1.5" marker-end="url(#a)"/>
    <line x1="849" y1="310" x2="925" y2="310" stroke="#1a1a1a" stroke-width="1.5" marker-end="url(#a)"/>
    <line x1="847" y1="317" x2="925" y2="345" stroke="#1a1a1a" stroke-width="1.5" marker-end="url(#a)"/>
    <!-- convergence to integrator and main -->
    <line x1="418" y1="205" x2="1042" y2="228" stroke="#c9c2b6" stroke-width="1.5"/>
    <line x1="640" y1="253" x2="1042" y2="238" stroke="#c9c2b6" stroke-width="1.5"/>
    <line x1="954" y1="160" x2="1044" y2="222" stroke="#c9c2b6" stroke-width="1.5"/>
    <line x1="954" y1="300" x2="1044" y2="248" stroke="#c9c2b6" stroke-width="1.5"/>
    <circle cx="1068" cy="235" r="24" fill="none" stroke="#1a1a1a" stroke-width="2.5"/>
    <text x="1068" y="288" font-size="16" fill="#8a8a8a" text-anchor="middle">integrate,</text>
    <text x="1068" y="308" font-size="16" fill="#8a8a8a" text-anchor="middle">verify</text>
    <line x1="1092" y1="235" x2="1136" y2="235" stroke="#1a1a1a" stroke-width="2" marker-end="url(#a)"/>
    <path d="M1142,220 a20,8 0 0,1 40,0 v30 a20,8 0 0,1 -40,0 z" fill="none" stroke="#1a1a1a" stroke-width="2"/>
    <ellipse cx="1162" cy="220" rx="20" ry="8" fill="none" stroke="#1a1a1a" stroke-width="2"/>
    <text x="1162" y="288" font-size="16" fill="#8a8a8a" text-anchor="middle">main</text>
    <text x="620" y="416" font-size="17" fill="#8a8a8a" text-anchor="middle">dispatch, steer, integrate, verify: all running in parallel from one context</text>
  </g>

  <!-- P1 Codex fleet -->
  <g transform="translate(60,630)">
    <rect width="600" height="430" fill="#ffffff" stroke="#ddd8d0"/>
    <rect x="30" y="26" width="36" height="36" fill="#e2694e"/><text x="48" y="51" font-size="22" font-weight="700" fill="#fff" text-anchor="middle">1</text>
    <text x="84" y="52" font-size="26" font-weight="700" fill="#1a1a1a">Codex fleet</text>
    <line x1="30" y1="86" x2="570" y2="86" stroke="#ddd8d0"/>
    <rect x="40" y="218" width="92" height="44" rx="8" fill="none" stroke="#1a1a1a" stroke-width="2"/>
    <text x="86" y="246" font-size="19" fill="#1a1a1a" text-anchor="middle">briefs</text>
    <circle cx="228" cy="240" r="24" fill="#e2694e"/>
    <text x="228" y="290" font-size="18" fill="#8a8a8a" text-anchor="middle">Fable</text>
    <line x1="132" y1="240" x2="197" y2="240" stroke="#1a1a1a" stroke-width="2" marker-end="url(#a)"/>
    <circle cx="430" cy="130" r="20" fill="#1e2a4a"/>
    <circle cx="430" cy="200" r="20" fill="#1e2a4a"/>
    <circle cx="430" cy="270" r="20" fill="#1e2a4a"/>
    <circle cx="430" cy="340" r="20" fill="#1e2a4a"/>
    <line x1="250" y1="230" x2="404" y2="136" stroke="#1a1a1a" stroke-width="2" marker-end="url(#a)"/>
    <line x1="252" y1="236" x2="404" y2="202" stroke="#1a1a1a" stroke-width="2" marker-end="url(#a)"/>
    <line x1="252" y1="246" x2="404" y2="266" stroke="#1a1a1a" stroke-width="2" marker-end="url(#a)"/>
    <line x1="250" y1="252" x2="404" y2="334" stroke="#1a1a1a" stroke-width="2" marker-end="url(#a)"/>
    <text x="466" y="196" font-size="18" fill="#8a8a8a">as many as</text>
    <text x="466" y="220" font-size="18" fill="#8a8a8a">the campaign</text>
    <text x="466" y="244" font-size="18" fill="#8a8a8a">needs</text>
    <text x="300" y="392" font-size="17" fill="#8a8a8a" text-anchor="middle">headless codex workers, flat-rate, fire-and-collect</text>
  </g>

  <!-- P2 Opus design workers -->
  <g transform="translate(700,630)">
    <rect width="600" height="430" fill="#ffffff" stroke="#ddd8d0"/>
    <rect x="30" y="26" width="36" height="36" fill="#e2694e"/><text x="48" y="51" font-size="22" font-weight="700" fill="#fff" text-anchor="middle">2</text>
    <text x="84" y="52" font-size="26" font-weight="700" fill="#1a1a1a">Opus design workers</text>
    <line x1="30" y1="86" x2="570" y2="86" stroke="#ddd8d0"/>
    <circle cx="140" cy="240" r="24" fill="#e2694e"/>
    <text x="140" y="290" font-size="18" fill="#8a8a8a" text-anchor="middle">Fable</text>
    <circle cx="390" cy="165" r="22" fill="none" stroke="#e2694e" stroke-width="3"/>
    <circle cx="390" cy="315" r="22" fill="none" stroke="#e2694e" stroke-width="3"/>
    <text x="424" y="162" font-size="18" fill="#8a8a8a">UI/UX build</text>
    <text x="424" y="322" font-size="18" fill="#8a8a8a">design review</text>
    <line x1="162" y1="230" x2="364" y2="172" stroke="#1a1a1a" stroke-width="2" marker-end="url(#a)"/>
    <line x1="162" y1="250" x2="364" y2="308" stroke="#1a1a1a" stroke-width="2" marker-end="url(#a)"/>
    <path d="M366,190 C 300,240 240,240 168,252" fill="none" stroke="#e2694e" stroke-width="2" stroke-dasharray="7,6" marker-end="url(#ao)"/>
    <text x="300" y="392" font-size="17" fill="#8a8a8a" text-anchor="middle">steerable mid-run: redirect instead of respawn</text>
  </g>

  <!-- P3 Squads -->
  <g transform="translate(60,1100)">
    <rect width="600" height="430" fill="#ffffff" stroke="#ddd8d0"/>
    <rect x="30" y="26" width="36" height="36" fill="#e2694e"/><text x="48" y="51" font-size="22" font-weight="700" fill="#fff" text-anchor="middle">3</text>
    <text x="84" y="52" font-size="26" font-weight="700" fill="#1a1a1a">Squads</text>
    <line x1="30" y1="86" x2="570" y2="86" stroke="#ddd8d0"/>
    <circle cx="95" cy="240" r="24" fill="#e2694e"/>
    <text x="95" y="290" font-size="18" fill="#8a8a8a" text-anchor="middle">Fable</text>
    <circle cx="255" cy="155" r="22" fill="none" stroke="#e2694e" stroke-width="3"/>
    <circle cx="255" cy="325" r="22" fill="none" stroke="#e2694e" stroke-width="3"/>
    <text x="255" y="122" font-size="17" fill="#8a8a8a" text-anchor="middle">opus lead</text>
    <text x="255" y="382" font-size="17" fill="#8a8a8a" text-anchor="middle">opus lead</text>
    <line x1="116" y1="228" x2="231" y2="164" stroke="#1a1a1a" stroke-width="2" marker-end="url(#a)"/>
    <line x1="116" y1="252" x2="231" y2="316" stroke="#1a1a1a" stroke-width="2" marker-end="url(#a)"/>
    <circle cx="420" cy="105" r="15" fill="#1e2a4a"/>
    <circle cx="420" cy="155" r="15" fill="#1e2a4a"/>
    <circle cx="420" cy="205" r="15" fill="#1e2a4a"/>
    <circle cx="420" cy="275" r="15" fill="#1e2a4a"/>
    <circle cx="420" cy="325" r="15" fill="#1e2a4a"/>
    <circle cx="420" cy="375" r="15" fill="#1e2a4a"/>
    <line x1="276" y1="147" x2="400" y2="109" stroke="#1a1a1a" stroke-width="2" marker-end="url(#a)"/>
    <line x1="277" y1="155" x2="400" y2="155" stroke="#1a1a1a" stroke-width="2" marker-end="url(#a)"/>
    <line x1="276" y1="163" x2="400" y2="201" stroke="#1a1a1a" stroke-width="2" marker-end="url(#a)"/>
    <line x1="276" y1="317" x2="400" y2="279" stroke="#1a1a1a" stroke-width="2" marker-end="url(#a)"/>
    <line x1="277" y1="325" x2="400" y2="325" stroke="#1a1a1a" stroke-width="2" marker-end="url(#a)"/>
    <line x1="276" y1="333" x2="400" y2="371" stroke="#1a1a1a" stroke-width="2" marker-end="url(#a)"/>
    <text x="462" y="160" font-size="18" fill="#8a8a8a">its own</text>
    <text x="462" y="184" font-size="18" fill="#8a8a8a">codex fleet</text>
    <text x="462" y="330" font-size="18" fill="#8a8a8a">its own</text>
    <text x="462" y="354" font-size="18" fill="#8a8a8a">codex fleet</text>
  </g>

  <!-- P4 Worktrees + integration -->
  <g transform="translate(700,1100)">
    <rect width="600" height="430" fill="#ffffff" stroke="#ddd8d0"/>
    <rect x="30" y="26" width="36" height="36" fill="#e2694e"/><text x="48" y="51" font-size="22" font-weight="700" fill="#fff" text-anchor="middle">4</text>
    <text x="84" y="52" font-size="26" font-weight="700" fill="#1a1a1a">Worktrees, then integrate</text>
    <line x1="30" y1="86" x2="570" y2="86" stroke="#ddd8d0"/>
    <line x1="55" y1="150" x2="330" y2="150" stroke="#1a1a1a" stroke-width="2"/>
    <line x1="55" y1="220" x2="330" y2="220" stroke="#1a1a1a" stroke-width="2"/>
    <line x1="55" y1="290" x2="330" y2="290" stroke="#1a1a1a" stroke-width="2"/>
    <circle cx="190" cy="150" r="15" fill="#1e2a4a"/>
    <circle cx="190" cy="220" r="15" fill="#1e2a4a"/>
    <circle cx="190" cy="290" r="15" fill="none" stroke="#e2694e" stroke-width="3"/>
    <text x="55" y="136" font-size="15" fill="#b3b3b3">campaign/palette</text>
    <text x="55" y="206" font-size="15" fill="#b3b3b3">campaign/engine</text>
    <text x="55" y="276" font-size="15" fill="#b3b3b3">campaign/theme</text>
    <line x1="332" y1="152" x2="408" y2="200" stroke="#1a1a1a" stroke-width="2" marker-end="url(#a)"/>
    <line x1="332" y1="220" x2="404" y2="220" stroke="#1a1a1a" stroke-width="2" marker-end="url(#a)"/>
    <line x1="332" y1="288" x2="408" y2="240" stroke="#1a1a1a" stroke-width="2" marker-end="url(#a)"/>
    <circle cx="438" cy="220" r="26" fill="none" stroke="#1a1a1a" stroke-width="2.5"/>
    <text x="438" y="270" font-size="17" fill="#8a8a8a" text-anchor="middle">integrator</text>
    <line x1="464" y1="220" x2="512" y2="220" stroke="#1a1a1a" stroke-width="2" marker-end="url(#a)"/>
    <path d="M518,204 a22,9 0 0,1 44,0 v28 a22,9 0 0,1 -44,0 z" fill="none" stroke="#1a1a1a" stroke-width="2"/>
    <ellipse cx="540" cy="204" rx="22" ry="9" fill="none" stroke="#1a1a1a" stroke-width="2"/>
    <text x="540" y="270" font-size="17" fill="#8a8a8a" text-anchor="middle">main</text>
    <text x="300" y="360" font-size="17" fill="#8a8a8a" text-anchor="middle">one git worktree and branch per writer; the conductor</text>
    <text x="300" y="386" font-size="17" fill="#8a8a8a" text-anchor="middle">re-verifies every merge. Integrator: fable, opus, or codex.</text>
  </g>

  <!-- Legend -->
  <g transform="translate(66,1618)">
    <circle cx="12" cy="0" r="12" fill="#e2694e"/><text x="34" y="7" font-size="20" fill="#555">Fable conductor</text>
    <circle cx="232" cy="0" r="12" fill="none" stroke="#e2694e" stroke-width="3"/><text x="254" y="7" font-size="20" fill="#555">Claude Opus agent</text>
    <circle cx="482" cy="0" r="12" fill="#1e2a4a"/><text x="504" y="7" font-size="20" fill="#555">Codex worker</text>
  </g>
</svg>
